<?xml version="1.0" standalone="no"?>
<!DOCTYPE svg PUBLIC "-//W3C//DTD SVG 20010904//EN"
 "http://www.w3.org/TR/2001/REC-SVG-20010904/DTD/svg10.dtd">
<svg version="1.0" xmlns="http://www.w3.org/2000/svg"
 width="512.000000pt" height="512.000000pt" viewBox="0 0 512.000000 512.000000"
 preserveAspectRatio="xMidYMid meet">
<metadata>
Created by potrace 1.11, written by Peter Selinger 2001-2013
</metadata>
<g transform="translate(0.000000,512.000000) scale(0.100000,-0.100000)"
fill="#000000" stroke="none">
<path d="M2335 4879 c-205 -19 -468 -85 -663 -165 -90 -37 -96 -39 -87 -24 10
16 -25 11 -43 -6 -15 -15 -17 -15 -36 7 -16 20 -18 21 -12 4 6 -16 5 -18 -5
-7 -15 14 -33 16 -24 3 3 -6 -4 -8 -15 -5 -11 2 -29 6 -40 8 -11 3 -19 0 -17
-7 3 -14 -25 -16 -35 -3 -4 6 -13 5 -22 -4 -14 -11 -16 -10 -10 6 5 18 5 18
-9 1 -14 -16 -16 -16 -31 -2 -9 9 -16 13 -16 8 0 -4 -7 0 -14 10 -9 11 -17 14
-20 8 -4 -6 -13 -8 -21 -4 -8 3 -15 0 -15 -6 0 -6 -7 -11 -15 -11 -8 0 -15 4
-15 8 0 5 -7 9 -15 9 -8 0 -15 -5 -15 -11 0 -6 -5 -4 -10 4 -5 8 -10 11 -10 5
0 -5 -5 -3 -10 5 -9 13 -11 13 -20 0 -5 -8 -10 -11 -10 -7 0 4 -9 3 -19 -2
-15 -8 -20 -7 -26 6 -5 13 -8 14 -14 5 -5 -8 -20 -11 -37 -8 -16 2 -33 5 -37
5 -5 1 -5 7 -2 14 4 6 -1 3 -9 -7 -9 -11 -16 -17 -16 -13 0 4 -9 3 -20 -3 -16
-9 -18 -8 -14 5 4 8 2 15 -2 16 -46 5 -82 4 -98 -4 -12 -6 -16 -5 -12 1 8 13
-17 22 -44 15 -12 -3 -19 -11 -16 -19 3 -8 0 -11 -10 -7 -7 3 -14 9 -14 13 0
15 -41 18 -55 3 -8 -8 -15 -10 -15 -4 0 6 -5 11 -11 11 -5 0 -7 -4 -4 -10 3
-5 1 -10 -4 -10 -6 0 -11 5 -11 10 0 6 -5 10 -11 10 -5 0 -8 -4 -5 -9 4 -5 -3
-7 -14 -4 -11 3 -20 10 -20 15 0 6 -7 8 -15 4 -8 -3 -15 -2 -15 2 0 4 -9 8
-20 9 -11 1 -18 -2 -15 -6 2 -5 -4 -11 -15 -14 -22 -6 -28 9 -7 16 6 2 -5 3
-25 3 -20 -1 -40 -5 -44 -9 -10 -10 -26 -9 -20 1 6 10 -59 6 -76 -4 -7 -5 -8
-3 -3 6 6 10 4 12 -11 6 -10 -4 -15 -4 -11 0 4 4 2 13 -4 20 -9 11 -16 11 -40
-1 -32 -17 -64 -21 -39 -5 11 7 2 10 -32 10 -28 0 -48 -5 -51 -12 -3 -7 -6 -4
-7 7 l-1 20 -15 -20 c-11 -13 -18 -16 -21 -8 -2 7 -11 9 -19 6 -8 -3 -14 0
-14 6 0 6 -4 11 -10 11 -7 0 -10 -803 -10 -2390 l0 -2390 2560 0 2560 0 0
2390 c0 1587 -3 2390 -10 2390 -5 0 -10 -5 -10 -11 0 -6 -6 -9 -14 -6 -8 3
-17 1 -19 -6 -3 -8 -10 -5 -21 8 l-15 20 -1 -20 c-1 -11 -4 -14 -7 -7 -3 7
-23 12 -51 12 -34 0 -43 -3 -32 -10 25 -16 -7 -12 -39 5 -24 12 -31 12 -40 1
-6 -7 -8 -16 -4 -20 4 -4 -1 -4 -11 0 -15 6 -17 4 -11 -6 5 -9 4 -11 -3 -6
-17 10 -82 14 -76 4 6 -10 -10 -11 -20 -1 -4 4 -24 8 -44 9 -20 0 -31 -1 -24
-3 20 -7 14 -22 -8 -16 -11 3 -17 9 -15 14 3 4 -4 7 -15 6 -11 -1 -20 -5 -20
-9 0 -4 -7 -5 -15 -2 -8 4 -15 2 -15 -4 0 -5 -9 -12 -20 -15 -11 -3 -18 -1
-14 4 3 5 0 9 -5 9 -6 0 -11 -4 -11 -10 0 -5 -5 -10 -11 -10 -5 0 -7 5 -4 10
3 6 1 10 -4 10 -6 0 -11 -5 -11 -11 0 -6 -7 -4 -15 4 -14 15 -55 12 -55 -3 0
-4 -7 -10 -14 -13 -10 -4 -13 -1 -10 7 3 8 -4 16 -16 19 -27 7 -52 -2 -44 -15
4 -6 0 -7 -12 -1 -16 8 -52 9 -98 4 -4 -1 -6 -8 -2 -16 4 -13 2 -14 -14 -5
-11 6 -20 7 -20 3 0 -4 -7 2 -16 13 -8 10 -13 13 -9 7 3 -7 3 -13 -2 -14 -4 0
-21 -3 -37 -5 -17 -3 -32 0 -37 8 -6 9 -9 8 -14 -5 -6 -13 -11 -14 -26 -6 -10
5 -19 6 -19 2 0 -4 -5 -1 -10 7 -9 13 -11 13 -20 0 -5 -8 -10 -10 -10 -5 0 6
-5 3 -10 -5 -5 -8 -10 -10 -10 -4 0 6 -7 11 -15 11 -8 0 -15 -4 -15 -9 0 -4
-7 -8 -15 -8 -8 0 -15 5 -15 11 0 6 -7 9 -15 6 -8 -4 -17 -2 -21 4 -3 6 -11 3
-20 -8 -7 -10 -14 -14 -14 -10 0 5 -7 1 -16 -8 -15 -14 -17 -14 -31 2 -14 17
-14 17 -9 -1 6 -16 4 -17 -10 -6 -9 9 -18 10 -22 4 -10 -13 -38 -11 -35 3 2 7
-6 10 -17 7 -11 -2 -29 -6 -40 -8 -11 -3 -18 -1 -15 5 9 13 -9 11 -24 -3 -10
-11 -11 -9 -5 7 6 17 4 16 -12 -4 -19 -22 -21 -22 -36 -7 -18 17 -53 22 -43 6
9 -14 6 -13 -76 20 -347 143 -751 204 -1124 169z m-2195 -129 c0 -5 -2 -10 -4
-10 -3 0 -8 5 -11 10 -3 6 -1 10 4 10 6 0 11 -4 11 -10z m4860 6 c0 -3 -4 -8
-10 -11 -5 -3 -10 -1 -10 4 0 6 5 11 10 11 6 0 10 -2 10 -4z m-2135 -351 c98
-16 144 -34 94 -36 -13 -1 -38 -2 -56 -3 -17 -1 -29 2 -27 6 10 16 -29 7 -43
-9 -9 -13 -13 -14 -11 -3 2 8 -5 14 -17 15 -11 0 -26 4 -33 8 -8 6 -12 4 -10
-5 2 -7 -3 -11 -12 -9 -16 4 -25 4 -107 -1 -29 -2 -53 -1 -53 2 0 3 -13 5 -30
5 -16 0 -30 -2 -30 -5 0 -3 -24 -4 -52 -2 -83 5 -92 5 -108 1 -9 -2 -14 2 -12
9 2 9 -2 11 -10 5 -7 -4 -22 -8 -33 -8 -12 -1 -19 -7 -17 -15 2 -11 -2 -10
-11 3 -14 16 -53 25 -43 9 2 -4 -10 -7 -27 -6 -18 1 -42 2 -55 3 -13 1 -21 5
-18 10 5 7 63 17 261 45 64 9 365 -4 460 -19z"/>
</g>
</svg>
